<mxfile host="app.diagrams.net" modified="2021-03-18T03:23:42.483Z" agent="5.0 (Macintosh; Intel Mac OS X 10_15_6) AppleWebKit/605.1.15 (KHTML, like Gecko) Version/14.0.2 Safari/605.1.15" etag="6NdvIdmw78IUIq3Go0T0" version="14.4.9" type="github">
  <diagram id="dkXL8Y6G2lB-Cq6JQZT7" name="Page-1">
    <mxGraphModel dx="1113" dy="1725" grid="1" gridSize="10" guides="1" tooltips="1" connect="1" arrows="1" fold="1" page="1" pageScale="1" pageWidth="850" pageHeight="1100" math="0" shadow="0">
      <root>
        <mxCell id="0" />
        <mxCell id="1" parent="0" />
        <mxCell id="eW8s0W_jJ0vVTKVk_THC-1" value="" style="rounded=0;whiteSpace=wrap;html=1;dashed=1;strokeWidth=1;perimeterSpacing=1;" vertex="1" parent="1">
          <mxGeometry x="40" y="-1040" width="1195" height="510" as="geometry" />
        </mxCell>
        <mxCell id="eW8s0W_jJ0vVTKVk_THC-6" value="" style="rounded=0;whiteSpace=wrap;html=1;strokeWidth=1;" vertex="1" parent="1">
          <mxGeometry x="360" y="-1040" width="150" height="150" as="geometry" />
        </mxCell>
        <mxCell id="eW8s0W_jJ0vVTKVk_THC-7" value="" style="rounded=0;whiteSpace=wrap;html=1;strokeWidth=1;" vertex="1" parent="1">
          <mxGeometry x="170" y="-810" width="340" height="140" as="geometry" />
        </mxCell>
        <mxCell id="eW8s0W_jJ0vVTKVk_THC-8" value="" style="rounded=0;whiteSpace=wrap;html=1;strokeWidth=1;" vertex="1" parent="1">
          <mxGeometry x="270" y="-840" width="130" height="30" as="geometry" />
        </mxCell>
        <mxCell id="eW8s0W_jJ0vVTKVk_THC-10" value="" style="rounded=0;whiteSpace=wrap;html=1;strokeWidth=1;" vertex="1" parent="1">
          <mxGeometry x="270" y="-670" width="130" height="30" as="geometry" />
        </mxCell>
        <mxCell id="eW8s0W_jJ0vVTKVk_THC-11" value="" style="whiteSpace=wrap;html=1;aspect=fixed;strokeWidth=1;" vertex="1" parent="1">
          <mxGeometry x="510" y="-805" width="130" height="130" as="geometry" />
        </mxCell>
        <mxCell id="eW8s0W_jJ0vVTKVk_THC-12" value="" style="rounded=0;whiteSpace=wrap;html=1;strokeWidth=1;" vertex="1" parent="1">
          <mxGeometry x="60" y="-1040" width="20" height="510" as="geometry" />
        </mxCell>
        <mxCell id="eW8s0W_jJ0vVTKVk_THC-13" value="" style="rounded=0;whiteSpace=wrap;html=1;strokeWidth=1;" vertex="1" parent="1">
          <mxGeometry x="40" y="-570" width="1210" height="20" as="geometry" />
        </mxCell>
        <mxCell id="eW8s0W_jJ0vVTKVk_THC-14" value="" style="endArrow=none;dashed=1;html=1;dashPattern=1 3;strokeWidth=2;entryX=0;entryY=0;entryDx=0;entryDy=0;exitX=0;exitY=0.454;exitDx=0;exitDy=0;exitPerimeter=0;" edge="1" parent="1" source="eW8s0W_jJ0vVTKVk_THC-1" target="eW8s0W_jJ0vVTKVk_THC-7">
          <mxGeometry width="50" height="50" relative="1" as="geometry">
            <mxPoint x="100" y="-800" as="sourcePoint" />
            <mxPoint x="150" y="-850" as="targetPoint" />
          </mxGeometry>
        </mxCell>
        <mxCell id="eW8s0W_jJ0vVTKVk_THC-15" value="" style="shape=image;html=1;verticalAlign=top;verticalLabelPosition=bottom;labelBackgroundColor=#ffffff;imageAspect=0;aspect=fixed;image=https://cdn2.iconfinder.com/data/icons/spring-outline-6/272/spring-bush-tree-leaves-grass-nature-flower-128.png;strokeWidth=1;rotation=-90;" vertex="1" parent="1">
          <mxGeometry x="140" y="-790" width="38" height="38" as="geometry" />
        </mxCell>
        <mxCell id="eW8s0W_jJ0vVTKVk_THC-16" value="" style="shape=image;html=1;verticalAlign=top;verticalLabelPosition=bottom;labelBackgroundColor=#ffffff;imageAspect=0;aspect=fixed;image=https://cdn2.iconfinder.com/data/icons/spring-outline-6/272/spring-bush-tree-leaves-grass-nature-flower-128.png;strokeWidth=1;rotation=-90;" vertex="1" parent="1">
          <mxGeometry x="140" y="-730" width="38" height="38" as="geometry" />
        </mxCell>
        <mxCell id="eW8s0W_jJ0vVTKVk_THC-17" value="" style="shape=image;html=1;verticalAlign=top;verticalLabelPosition=bottom;labelBackgroundColor=#ffffff;imageAspect=0;aspect=fixed;image=https://cdn2.iconfinder.com/data/icons/spring-outline-6/272/spring-bush-tree-leaves-grass-nature-flower-128.png;strokeWidth=1;rotation=-165;" vertex="1" parent="1">
          <mxGeometry x="151.46" y="-676.12" width="28" height="28" as="geometry" />
        </mxCell>
        <mxCell id="eW8s0W_jJ0vVTKVk_THC-18" value="" style="shape=image;html=1;verticalAlign=top;verticalLabelPosition=bottom;labelBackgroundColor=#ffffff;imageAspect=0;aspect=fixed;image=https://cdn2.iconfinder.com/data/icons/spring-outline-6/272/spring-bush-tree-leaves-grass-nature-flower-128.png;strokeWidth=1;rotation=-180;" vertex="1" parent="1">
          <mxGeometry x="200" y="-675" width="28" height="28" as="geometry" />
        </mxCell>
        <mxCell id="eW8s0W_jJ0vVTKVk_THC-19" value="" style="shape=image;html=1;verticalAlign=top;verticalLabelPosition=bottom;labelBackgroundColor=#ffffff;imageAspect=0;aspect=fixed;image=https://cdn2.iconfinder.com/data/icons/spring-outline-6/272/spring-bush-tree-leaves-grass-nature-flower-128.png;strokeWidth=1;rotation=-180;" vertex="1" parent="1">
          <mxGeometry x="260" y="-640" width="30" height="30" as="geometry" />
        </mxCell>
        <mxCell id="eW8s0W_jJ0vVTKVk_THC-21" value="" style="ellipse;shape=cloud;whiteSpace=wrap;html=1;strokeWidth=1;rotation=-30;" vertex="1" parent="1">
          <mxGeometry x="100" y="-647" width="50" height="60" as="geometry" />
        </mxCell>
        <mxCell id="eW8s0W_jJ0vVTKVk_THC-22" value="" style="ellipse;shape=cloud;whiteSpace=wrap;html=1;strokeWidth=1;rotation=-90;" vertex="1" parent="1">
          <mxGeometry x="315" y="-640" width="50" height="60" as="geometry" />
        </mxCell>
        <mxCell id="eW8s0W_jJ0vVTKVk_THC-23" value="" style="ellipse;shape=cloud;whiteSpace=wrap;html=1;strokeWidth=1;" vertex="1" parent="1">
          <mxGeometry x="385" y="-632" width="40" height="42" as="geometry" />
        </mxCell>
        <mxCell id="eW8s0W_jJ0vVTKVk_THC-20" value="" style="shape=image;html=1;verticalAlign=top;verticalLabelPosition=bottom;labelBackgroundColor=#ffffff;imageAspect=0;aspect=fixed;image=https://cdn2.iconfinder.com/data/icons/spring-outline-6/272/spring-bush-tree-leaves-grass-nature-flower-128.png;strokeWidth=1;rotation=-180;" vertex="1" parent="1">
          <mxGeometry x="406" y="-670" width="38" height="38" as="geometry" />
        </mxCell>
        <mxCell id="eW8s0W_jJ0vVTKVk_THC-25" value="" style="endArrow=none;dashed=1;html=1;entryX=1;entryY=1;entryDx=0;entryDy=0;" edge="1" parent="1" target="eW8s0W_jJ0vVTKVk_THC-10">
          <mxGeometry width="50" height="50" relative="1" as="geometry">
            <mxPoint x="400" y="-600" as="sourcePoint" />
            <mxPoint x="400" y="-637" as="targetPoint" />
          </mxGeometry>
        </mxCell>
        <mxCell id="eW8s0W_jJ0vVTKVk_THC-26" value="" style="endArrow=none;dashed=1;html=1;" edge="1" parent="1">
          <mxGeometry width="50" height="50" relative="1" as="geometry">
            <mxPoint x="400" y="-600" as="sourcePoint" />
            <mxPoint x="1160" y="-610" as="targetPoint" />
          </mxGeometry>
        </mxCell>
        <mxCell id="eW8s0W_jJ0vVTKVk_THC-27" value="" style="endArrow=none;dashed=1;html=1;" edge="1" parent="1">
          <mxGeometry width="50" height="50" relative="1" as="geometry">
            <mxPoint x="1160" y="-610" as="sourcePoint" />
            <mxPoint x="1160" y="-1040" as="targetPoint" />
          </mxGeometry>
        </mxCell>
        <mxCell id="eW8s0W_jJ0vVTKVk_THC-28" value="" style="ellipse;shape=cloud;whiteSpace=wrap;html=1;strokeWidth=1;" vertex="1" parent="1">
          <mxGeometry x="90" y="-770" width="50" height="60" as="geometry" />
        </mxCell>
      </root>
    </mxGraphModel>
  </diagram>
</mxfile>
